<svg xmlns="http://www.w3.org/2000/svg" xml:space="preserve" width="800" height="800" viewBox="0 0 260 201"><path d="M149 199h-47c2.03-1.37 5.4-4.44 5.4-9.07 0-4.45-1.23-10.78-4.54-19.64a40.68 40.68 0 0 0 9.1-15.65c1.98.63 4 1.29 6.08 1.98 5.6 1.82 11.68 3.81 18.39 5.61-3.62 5.24-8.52 10.03-15.13 14.49-2.4 1.62-3.22 2.7-3.22 5.11 0 3.62 4.61 6.63 9.25 8.04a41.3 41.3 0 0 0 11.77 1.62c4.9 0 8.45 3.54 9.9 7.51zm69.05-126.97-4.49-4.3c-3.11-3.67-3.49-9.1-5.91-14.59a43.53 43.53 0 0 0-8.34-12.64c0 5.81-1.95 9.69-1.95 9.69s-6.91-3.68-15.93-2.6a20.57 20.57 0 0 1-19.18-12.83c-.02.1-2.41 10.78 6.84 17.52l-.42.29a15 15 0 0 1-16.26-4.75s-.92 7.03 3.56 11.24a7.33 7.33 0 0 0 4.32 2c-2.67 3.91-4.54 8.51-4.64 13.37-.29 13.52 8.12 20.92 17.22 30.84a7.35 7.35 0 0 1 2.5 5.54c0 4.3-3.96 7.8-8.23 7.37-4.11-.41-8.38-4.48-11.27-7.17-7.32-6.84-12.45-15.85-15.26-25.43A65.93 65.93 0 0 1 138 67.06c0-12.51 3.43-24.06 9.22-33.34C129.54 14.04 103.52 2 75 2c-3.05 0-7.02.72-10 1 13.03 8.25 23 21.9 23 38.46A46.5 46.5 0 0 1 71.3 77.2a43.14 43.14 0 0 1 34.74 32.96 99.2 99.2 0 0 0-24.7 7.17c-20.86 9.1-36.37 25.72-48.46 34.71-1.9 1.42-4.8 2.5-7.36 2.5-8.38 0-12.2-9.03-8.64-15.82 4.92-9.33 19.22-20.38 19.22-29.51 0-7.52-5.7-12.35-9.32-14.66A20.72 20.72 0 0 1 38.2 89.4L10.02 80.6l9.84 27.83A20.73 20.73 0 0 1 24.2 97.3c3.54 3.29 8.62 10.01 1.41 17.22-4.74 4.74-8.11 7.09-14.5 12.81l-.07.07C5.65 131.93 2 138.41 2 146c0 13.63 11.28 24.99 24.91 24.99 7.93 0 14.92-4.36 20.73-9.37 4.58-3.95 9.45-7.74 14.78-10.65 6.91-3.77 14.53-5.58 22.34-5.88a23.63 23.63 0 0 1-33.05 19.22 28.22 28.22 0 0 0-1 8.03c.32 9.51 3.38 12.34 3.38 17.59 0 4.63-3.06 7.7-5.09 9.07h47c-1.45-3.97-5.32-7.5-10.22-7.5-3.94 0-8-.5-11.76-1.63-4.65-1.4-9.2-3.87-9.2-7.5 0-2.4 1.61-3.89 4.16-3.84 2.4.18 5.37.31 7.78.18 15.69-1.4 29.47-14.55 31.84-29.93 13.1 3.87 27.57 9.74 46.2 12.71 3.75 8.22 8.78 21.15 7.13 28.44-.99 4.34-2.9 7.7-4.93 9.07h47c-1.45-3.97-5.48-7.51-10.38-7.51-3.94 0-8-.49-11.77-1.62-4.64-1.4-7.15-4.42-7.84-9.07-.29-1.94-1.4-12.7-.52-17.53-.04.26 7.17-.45 7.69-.51 3.47-.44 6.77-.84 10.01-2.23 18.03-7.71 25.76-29.56 17.95-47.2-3.38-7.63-8.97-13.95-15.12-19.48-4.76-4.29-10.33-7.96-14.54-12.82-3.53-4.07-2.66-8.4-.45-10.71 2.68-2.81 8.15-2.97 10.7.14a982 982 0 0 0 11.41 13.45 4.07 4.07 0 0 0 4.5 1.16l4.35-1.63-3.48-1.49s-3.44-7.56-4.68-10.65l11.22 5.61-.57 4.76 5.61-5.52a2.87 2.87 0 0 0-.04-4.12zM211 199h47c-1.44-3.97-4.83-7.51-9.73-7.51-3.94 0-8.04-.38-11.77-1.62-8.95-2.99-19.88-22.38-28.66-36.22a39.72 39.72 0 0 1-15.21 11.25c10.52 8.39 23.09 19.46 23.95 25.03.68 4.4-3.55 7.7-5.58 9.07zm21.17-91.9c7.69 1.97 20.47 1.49 25.83-10.1-12.77 8.54-22.68 2.05-22.68 2.05s6.07-3.84 5.33-9.26c-16.74 6.28-27.99-3.66-27.99-3.66 2.52 11.64 12.6 19.2 19.5 20.97z"/></svg>